<svg width="27" height="27" viewBox="0 0 27 27" fill="none" xmlns="http://www.w3.org/2000/svg">
<path d="M14.6472 12.3819L14.6482 12.3818C15.0049 12.3462 15.3424 12.5922 15.3839 12.9598L14.6472 12.3819ZM14.6472 12.3819C12.0037 12.6573 10.8015 11.7238 10.2532 10.9461C9.47094 9.83633 9.43942 8.20662 10.2198 6.79191C10.9908 5.39449 12.3386 4.59749 13.9288 4.59749H13.9301C15.1515 4.59749 16.2192 5.07682 16.8058 5.84318L16.8058 5.84319M14.6472 12.3819L16.8058 5.84319M16.8058 5.84319C17.4106 6.63339 17.5326 7.75873 17.0843 9.14177L17.0843 9.14181M16.8058 5.84319L17.0843 9.14181M17.0843 9.14181C17.0059 9.38363 16.8319 9.67932 16.6122 9.93249C16.3883 10.1904 16.1491 10.3676 15.9577 10.4208L15.957 10.421M17.0843 9.14181L15.957 10.421M15.957 10.421C15.795 10.4665 15.7175 10.4389 15.6673 10.3991C15.6288 10.3683 15.5994 10.3259 15.58 10.2825C15.5705 10.2613 15.5646 10.2425 15.5615 10.2288C15.5608 10.2255 15.5603 10.2229 15.5599 10.2208C15.56 10.2204 15.56 10.2201 15.56 10.2197L16.0191 5.80578C16.0192 5.80548 16.0192 5.80517 16.0192 5.80487C16.0595 5.43703 15.7831 5.1227 15.4241 5.08595M15.957 10.421L14.9023 6.00332M14.6895 5.65524C14.1141 5.40691 13.4162 5.43514 12.7618 5.716C12.0797 6.00831 11.5106 6.60871 11.1413 7.30522C10.7717 8.00246 10.5872 8.82397 10.7063 9.58136L10.7063 9.58136C10.7965 10.1548 11.0545 10.6373 11.4583 10.9939C11.8605 11.3491 12.3939 11.5675 13.0182 11.6395L13.0184 11.6395C13.5445 11.6997 14.1679 11.5764 14.6782 11.282C14.7226 11.3276 14.7698 11.3706 14.8196 11.4104L14.8198 11.4105C15.2367 11.743 15.7772 11.8289 16.3243 11.6773L16.3246 11.6772C16.8073 11.543 17.2484 11.2099 17.5965 10.8222C17.946 10.4329 18.2211 9.96711 18.361 9.53572L18.361 9.53567C19.0767 7.32678 18.51 5.88653 17.8786 5.0614L17.8786 5.06139C17.0212 3.94119 15.5392 3.29095 13.93 3.29095H13.9288C11.8358 3.29095 10.0501 4.34338 9.04104 6.17228L9.04103 6.17229C8.04035 7.98621 8.06774 10.151 9.15022 11.6865C10.1049 13.0408 11.7414 13.7355 13.7721 13.7356L14.6895 5.65524ZM14.6895 5.65524C14.6997 5.65964 14.7099 5.66413 14.72 5.66871C14.72 5.66872 14.72 5.66872 14.72 5.66872C14.7912 5.70089 14.8604 5.73737 14.9273 5.77819L14.9023 6.00332M14.6895 5.65524C14.7348 5.29597 15.0633 5.04827 15.4241 5.08595M14.9023 6.00332L14.8753 6.04245L14.9023 6.00342L14.9023 6.00332ZM15.4241 5.08595C15.4242 5.08596 15.4243 5.08598 15.4245 5.08599L15.3984 5.33462L15.4237 5.08591C15.4238 5.08592 15.4239 5.08594 15.4241 5.08595ZM14.2434 6.90286L14.2433 6.90274C14.1467 6.83592 14.0078 6.79378 13.8355 6.79378C13.6727 6.79378 13.4882 6.83148 13.3004 6.91198C12.9247 7.07304 12.5663 7.44925 12.3197 7.92546C12.0738 8.40008 11.9593 8.93549 12.0297 9.38322L14.2434 6.90286ZM14.2434 6.90286C14.405 7.01447 14.5118 7.23592 14.473 7.6268L14.2408 9.95715M14.2434 6.90286L14.2408 9.95715M14.7899 13.6809C14.4407 13.7174 14.1011 13.7356 13.7722 13.7356L14.7899 13.6809ZM14.7899 13.6809C15.1492 13.6434 15.4254 13.3281 15.3839 12.9599L14.7899 13.6809ZM14.2408 9.95715C14.1511 10.0708 13.9982 10.175 13.8044 10.2488C13.5887 10.331 13.3557 10.3625 13.1744 10.342M14.2408 9.95715L13.1744 10.342M13.1744 10.342C12.8093 10.2999 12.5476 10.1917 12.3685 10.0382C12.1926 9.88747 12.0757 9.67549 12.0297 9.38325L13.1744 10.342Z" fill="white" stroke="white" stroke-width="0.5"/>
<path d="M25.0799 9.11317L25.0799 9.11314L22.1556 7.37204V1.40323C22.1556 1.0334 21.8468 0.75 21.4862 0.75H5.31213C4.95182 0.75 4.64273 1.03332 4.64273 1.40323V7.31733C3.25435 8.16152 2.30156 8.78885 1.83321 9.17401C1.13512 9.74786 0.75 10.5685 0.75 11.4774V23.181C0.749954 24.8826 2.18655 26.25 3.93185 26.25H23.0683C23.9181 26.25 24.6908 25.9255 25.2623 25.3992C25.2689 25.3939 25.276 25.3877 25.2832 25.3804L25.2833 25.3805L25.2869 25.3766C25.2871 25.3764 25.2874 25.3762 25.2876 25.376C25.8783 24.8202 26.25 24.0432 26.25 23.181V11.4774C26.25 10.7354 25.9639 9.63981 25.0799 9.11317ZM13.0629 19.5855L13.063 19.5856C13.1893 19.6913 13.3452 19.7431 13.4991 19.7431C13.6529 19.7431 13.8093 19.6914 13.9357 19.5849L16.0418 17.8188L23.7138 24.8271C23.5124 24.9017 23.2955 24.9435 23.0684 24.9435H3.93185C3.87793 24.9435 3.82449 24.9408 3.77148 24.9356L11.2588 18.0733L13.0629 19.5855ZM22.1556 10.9694V8.90243L23.597 9.76065L22.1556 10.9694ZM24.6878 10.5684C24.8341 10.8269 24.9112 11.1669 24.9112 11.4774V23.181C24.9112 23.4587 24.842 23.7212 24.7194 23.9562L17.0632 16.9623L24.6878 10.5684ZM5.98153 2.05645H20.8168V12.0918L13.4991 18.2286L5.98148 11.9271L5.98153 2.05645ZM4.64273 8.86151V10.8056L3.33342 9.70819C3.67603 9.47422 4.11466 9.19046 4.64273 8.86151ZM2.08875 23.181V11.4774C2.08875 11.1455 2.1743 10.8492 2.33418 10.5931L10.2374 17.2172L2.51284 24.2969C2.24752 23.9911 2.08875 23.6032 2.08875 23.181Z" fill="white" stroke="white" stroke-width="0.5"/>
</svg>
