<svg width="32" height="32" viewBox="0 0 32 32" fill="none" xmlns="http://www.w3.org/2000/svg">
<path d="M18.2832 6.15174C17.9761 6.11953 17.7071 6.33131 17.6744 6.62574L17.6351 6.98035C16.9765 6.55036 16.075 6.51873 15.2126 6.88893C14.4592 7.21181 13.8141 7.88431 13.3905 8.6833C12.9668 9.48244 12.7617 10.4137 12.8946 11.2587C12.9944 11.8936 13.2776 12.4186 13.7154 12.8052C14.1529 13.1916 14.742 13.4373 15.4504 13.5189L15.4505 13.5189C16.0906 13.5921 16.8711 13.4166 17.4623 13.013C17.5433 13.1184 17.6365 13.2147 17.7396 13.2971L17.7396 13.2971C18.1687 13.6392 18.7318 13.7354 19.3225 13.5717L19.3225 13.5717C19.8403 13.4277 20.331 13.0637 20.7298 12.6195C21.1288 12.1751 21.4396 11.646 21.5954 11.1657L21.5954 11.1657C22.4282 8.59515 21.7648 6.95214 21.0557 6.02554L21.0201 6.05282L21.0557 6.02554C20.0828 4.75424 18.3844 3.99907 16.516 3.99907H16.5146C14.0938 3.99907 12.0349 5.2127 10.8681 7.32743L10.8681 7.32744C9.70632 9.43344 9.74887 11.9269 10.9846 13.6797C12.0702 15.2197 13.9451 16.0326 16.3266 16.0326C16.7121 16.0327 17.1109 16.0113 17.522 15.9684C17.824 15.9369 18.0455 15.6748 18.0122 15.3798C17.9789 15.0848 17.705 14.8766 17.4027 14.9068L17.4025 14.9069C14.1506 15.2456 12.6153 14.0946 11.8994 13.0792C10.896 11.6557 10.8709 9.59519 11.8448 7.82947C12.8139 6.07313 14.5149 5.06691 16.5146 5.06691H16.5161C18.0415 5.06691 19.4043 5.66524 20.1654 6.6598L20.2051 6.62941L20.1654 6.6598C20.9581 7.69538 21.0923 9.14017 20.539 10.8471L20.539 10.8471C20.4324 11.1762 20.2037 11.5597 19.9234 11.8828C19.6423 12.2067 19.3155 12.4625 19.0161 12.5457L19.016 12.5458C18.7706 12.6147 18.5867 12.5871 18.4448 12.4742L18.4137 12.5133M18.2832 6.15174C18.5852 6.18253 18.8072 6.4441 18.7745 6.73919C18.7745 6.73922 18.7745 6.73926 18.7745 6.7393L18.2232 12.0395L18.2231 12.0403L18.2231 12.0404C18.2227 12.0449 18.2222 12.0507 18.2212 12.057C18.2198 12.0919 18.2321 12.1612 18.2678 12.241C18.3037 12.3213 18.3612 12.4074 18.4449 12.4743L18.4137 12.5133M18.2832 6.15174C18.2832 6.15174 18.2832 6.15175 18.2833 6.15175L18.2781 6.20133L18.2831 6.15173C18.2831 6.15174 18.2832 6.15174 18.2832 6.15174ZM18.4137 12.5133C18.5719 12.6393 18.7739 12.6657 19.0295 12.5939L18.1734 12.0351C18.1729 12.0408 18.1724 12.046 18.1714 12.0517C18.166 12.1412 18.2313 12.3675 18.4137 12.5133ZM17.0342 7.87764L17.0342 7.87766C17.3307 8.08249 17.468 8.45678 17.4164 8.97677L17.1311 11.8396C16.9914 12.0536 16.7406 12.223 16.4543 12.3321C16.1641 12.4427 15.8442 12.4886 15.5811 12.4588C15.1094 12.4044 14.7431 12.2615 14.4795 12.0356C14.2166 11.8103 14.0516 11.4988 13.9887 11.0987C13.8939 10.4959 14.0488 9.79935 14.3616 9.1955C14.6745 8.59133 15.1413 8.08771 15.662 7.86453C15.915 7.75609 16.1698 7.70246 16.4026 7.70246C16.648 7.70246 16.8674 7.76226 17.0342 7.87764Z" fill="#2B3C58" stroke="#2B3C58" stroke-width="0.1"/>
<path d="M29.8703 10.7788L29.8703 10.7787L26.3367 8.67487V1.48387C26.3367 1.06951 25.9904 0.75 25.5834 0.75H6.17455C5.76793 0.75 5.42128 1.06943 5.42128 1.48387V8.60891C3.74184 9.62953 2.59314 10.3856 2.03156 10.8475C1.20554 11.5265 0.75 12.4971 0.75 13.5729V27.6172C0.749946 29.6297 2.44961 31.25 4.51822 31.25H27.482C28.4894 31.25 29.4051 30.8651 30.0822 30.2411C30.0891 30.2356 30.0967 30.2291 30.1043 30.2214L30.1044 30.2214L30.108 30.2175C30.1086 30.217 30.1092 30.2164 30.1097 30.2158C30.8099 29.5575 31.25 28.6376 31.25 27.6172V13.5729C31.2501 12.6902 30.909 11.3976 29.8703 10.7788ZM15.5076 23.2642L15.5077 23.2644C15.6498 23.3833 15.8254 23.4417 15.9989 23.4417C16.1723 23.4417 16.3484 23.3834 16.4906 23.2638C16.4906 23.2637 16.4907 23.2637 16.4907 23.2637L19.0515 21.1162L28.3496 29.6098C28.0817 29.7198 27.7897 29.7823 27.482 29.7823H4.51822C4.41471 29.7823 4.31279 29.774 4.21226 29.7589L13.3091 21.4215L15.5076 23.2642ZM26.3367 13.0705V10.395L28.2025 11.5058L26.3367 13.0705ZM29.4384 12.4059C29.6394 12.7316 29.7435 13.1739 29.7435 13.5729V27.6172C29.7435 27.9816 29.6466 28.3246 29.4768 28.6275L20.1999 20.1531L29.4384 12.4059ZM6.92783 2.21774H24.8301V14.3335L15.999 21.7396L6.92778 14.1359L6.92783 2.21774ZM5.42128 10.3438V12.8739L3.71749 11.4458C4.15311 11.1465 4.72447 10.7768 5.42128 10.3438ZM2.25651 27.6172V13.5729C2.25651 13.1444 2.37287 12.7631 2.5897 12.437L12.1607 20.459L2.81175 29.0275C2.46569 28.6465 2.25651 28.1548 2.25651 27.6172Z" fill="#2B3C58" stroke="#2B3C58" stroke-width="0.5"/>
</svg>
