<svg width="15" height="15" viewBox="0 0 15 15" fill="none" xmlns="http://www.w3.org/2000/svg">
<path d="M8.25836 7.45946C8.39646 7.44504 8.49624 7.32562 8.48124 7.19282C8.46624 7.05992 8.34238 6.96458 8.20381 6.97842C6.56986 7.14864 5.79295 6.57003 5.42926 6.05415C4.92107 5.33318 4.90975 4.29245 5.4005 3.40278C5.88941 2.51667 6.74828 2.00858 7.75727 2.00858H7.758C8.52668 2.00858 9.21623 2.31005 9.60254 2.81483C10.0056 3.34135 10.0714 4.07318 9.79323 4.9314C9.68412 5.2682 9.32805 5.71002 9.01471 5.79707C8.88693 5.83297 8.78592 5.81976 8.70681 5.75679C8.61564 5.68389 8.58295 5.57074 8.58567 5.52596C8.58617 5.52313 8.5864 5.52051 8.58665 5.51768L8.86237 2.86701C8.87712 2.73412 8.77709 2.61492 8.63899 2.60086C8.49843 2.5861 8.37678 2.68285 8.36204 2.81575L8.33765 3.03557C8.33325 3.03242 8.32963 3.02863 8.32517 3.02555C8.00275 2.80263 7.55095 2.78091 7.11612 2.96756C6.3757 3.28486 5.84109 4.29337 5.97194 5.1256C6.07011 5.74982 6.52782 6.15407 7.22805 6.23475C7.54947 6.2715 7.94401 6.1803 8.2367 5.97225C8.2792 6.03097 8.32935 6.08437 8.38536 6.12913C8.59276 6.29451 8.86579 6.34188 9.15452 6.2619C9.66002 6.12131 10.1205 5.54814 10.2739 5.07525C10.6877 3.798 10.3577 2.98503 10.008 2.52809C9.52708 1.89973 8.6859 1.52466 7.75798 1.52466H7.75725C6.55595 1.52466 5.5349 2.12655 4.95593 3.17592C4.37892 4.22185 4.40116 5.45812 5.0127 6.32558C5.54952 7.08707 6.47804 7.49142 7.66326 7.49142C7.85509 7.49146 8.05365 7.48084 8.25836 7.45946ZM8.23305 3.99097L8.08979 5.42841C7.94356 5.65936 7.55996 5.78517 7.28769 5.75434C6.80935 5.69918 6.53413 5.46339 6.46961 5.05334C6.37278 4.43751 6.7865 3.63857 7.32111 3.40941C7.45037 3.35401 7.5811 3.32635 7.70126 3.32635C7.82781 3.32635 7.94283 3.35717 8.03128 3.41838C8.18979 3.52788 8.25934 3.72588 8.23305 3.99097Z" fill="white"/>
<path d="M14.3712 4.99677L12.5433 3.90849V0.241935C12.5433 0.108339 12.4308 0 12.2917 0H2.58728C2.44832 0 2.33564 0.108339 2.33564 0.241935V3.87481C1.4621 4.40427 0.874622 4.79047 0.595177 5.02028C0.211326 5.33581 6.0176e-10 5.78555 6.0176e-10 6.28643V13.3086C-2.51633e-05 14.2412 0.789165 15 1.75911 15H13.241C13.715 15 14.145 14.818 14.4616 14.5238C14.4622 14.5232 14.463 14.5231 14.4636 14.5225C14.4638 14.5222 14.4639 14.5219 14.4642 14.5216C14.794 14.214 15 13.7843 15 13.3086V6.28643C15 5.86435 14.8354 5.27332 14.3712 4.99677ZM12.5433 4.47757L13.8165 5.23558L12.5433 6.30322V4.47757ZM14.2399 5.52242C14.4151 5.71587 14.4967 6.02492 14.4967 6.28643V13.3086C14.4967 13.5686 14.4089 13.8082 14.2629 14.0055L9.41022 9.57254L14.2399 5.52242ZM2.83892 0.483871H12.0401V6.72506L7.4995 10.5329L2.83889 6.62627L2.83892 0.483871ZM2.33564 4.44777V6.2048L1.15346 5.21395C1.41914 5.02435 1.81834 4.76555 2.33564 4.44777ZM0.503253 13.3086V6.28643C0.503253 5.99787 0.598775 5.74437 0.77457 5.53841L5.76993 9.7253L0.902378 14.1865C0.658162 13.9661 0.503253 13.6553 0.503253 13.3086ZM1.75911 14.5161C1.61507 14.5161 1.47883 14.4879 1.34987 14.4448L6.15086 10.0446L7.33409 11.0363C7.38153 11.076 7.44051 11.0959 7.49947 11.0959C7.55843 11.0959 7.61754 11.076 7.66485 11.0362L9.02929 9.89199L13.8934 14.3353C13.7028 14.4478 13.4808 14.5161 13.241 14.5161H1.75911Z" fill="white"/>
</svg>
