<svg width="25" height="25" viewBox="0 0 25 25" fill="none" xmlns="http://www.w3.org/2000/svg">
<path d="M16.9165 12.102L14.2165 10.715C13.5555 10.3744 12.7009 10.4906 12.153 10.9942L11.8378 11.2827C11.5321 11.564 11.0555 11.6291 10.6853 11.4375C9.76442 10.9635 9.02795 10.2271 8.55347 9.30829C8.35921 8.9312 8.4212 8.4687 8.70919 8.1562L8.99827 7.84163C9.30816 7.50464 9.47847 7.06714 9.47847 6.61039C9.47847 6.32289 9.40867 6.03539 9.27692 5.77913L7.88838 3.08122C7.43889 2.20933 6.55085 1.66663 5.57116 1.66663C4.99512 1.66663 4.44929 1.85102 3.99302 2.19944L3.17221 2.82548C1.88315 3.80778 1.35344 5.50413 1.85293 7.04631C3.51647 12.1765 7.54826 16.314 12.6379 18.1146C13.0488 18.2599 13.4785 18.3333 13.9144 18.3333C14.9337 18.3333 15.9275 17.9192 16.6415 17.1958L17.5817 16.2453C18.0671 15.7546 18.3337 15.1057 18.3337 14.4177C18.3337 13.438 17.7905 12.551 16.9165 12.102ZM16.4691 15.1484L15.5296 16.0989C14.9264 16.7093 13.9712 16.9296 13.1587 16.6421C8.52482 15.0036 4.85397 11.2359 3.3394 6.56507C3.04408 5.65206 3.3571 4.64841 4.12012 4.06663L4.94147 3.44007C5.12325 3.30154 5.34096 3.22809 5.57116 3.22809C5.96283 3.22809 6.31855 3.44528 6.49823 3.79579L7.88625 6.4937C7.90499 6.53016 7.9149 6.56973 7.9149 6.61088C7.9149 6.69421 7.8774 6.75203 7.84565 6.7864L7.55711 7.10045C6.82898 7.89212 6.67116 9.0666 7.16441 10.0234C7.78734 11.2327 8.75815 12.2015 9.96911 12.8254C10.9092 13.3098 12.1165 13.1468 12.8941 12.4333L13.2097 12.1437C13.2608 12.0968 13.3931 12.0478 13.5025 12.1036L16.2025 13.4906C16.5535 13.6708 16.7712 14.026 16.7712 14.4177C16.7707 14.6921 16.6634 14.9515 16.4691 15.1484Z" fill="#FDFDFD"/>
</svg>
