<svg width="20" height="20" viewBox="0 0 20 20" fill="none" xmlns="http://www.w3.org/2000/svg">
<path d="M10.0319 9.55311C9.41656 9.55311 8.84969 9.35092 8.47625 8.99842C7.89531 8.44936 7.6225 7.67967 7.74719 6.93936C7.86781 6.22311 8.33625 5.63217 9.0325 5.31811C9.3575 5.17154 9.69156 5.09717 10.0253 5.09717C10.9203 5.09717 11.7341 5.63873 12.0981 6.47748C12.4616 7.31373 12.2847 8.23436 11.6253 8.93998C11.2616 9.32967 10.6806 9.55311 10.0319 9.55311ZM10.0253 5.72248C9.78094 5.72248 9.53344 5.77811 9.28969 5.88811C8.78656 6.11498 8.44906 6.53592 8.36344 7.04311C8.27375 7.57717 8.47594 8.13842 8.90531 8.54404C9.16 8.78467 9.58125 8.92811 10.0316 8.92811C10.5009 8.92811 10.9259 8.77311 11.1687 8.51342C11.6597 7.98748 11.7897 7.33623 11.525 6.72654C11.26 6.11654 10.6712 5.72248 10.0253 5.72248Z" fill="white"/>
<path d="M9.99814 13.7016C8.15345 13.7016 6.2197 10.5684 6.00564 10.2112C5.0447 8.61062 4.48689 6.08312 6.07689 4.22781C6.9997 3.15125 8.39845 2.53406 9.9147 2.53406C12.0991 2.53406 13.9734 3.75406 14.6897 5.64218C15.0644 6.62937 14.9953 7.97062 14.5169 8.97968C13.8178 10.4556 12.4916 12.4041 10.8656 13.4456C10.6006 13.6156 10.3084 13.7016 9.99814 13.7016ZM9.9147 3.15874C8.58095 3.15874 7.35533 3.69656 6.55158 4.63437C5.17783 6.23718 5.68751 8.46718 6.54158 9.88937C7.20314 10.9916 8.77689 13.0766 9.99845 13.0766C10.19 13.0766 10.3638 13.025 10.5288 12.9191C12.0435 11.9487 13.2903 10.1094 13.9525 8.71156C14.3559 7.85999 14.4188 6.68874 14.1056 5.86343C13.4822 4.22062 11.8369 3.15874 9.9147 3.15874Z" fill="white"/>
<path d="M12.2444 15.3763C11.8803 15.3763 11.0653 15.3691 10.2072 15.3612C9.25655 15.3528 8.25343 15.3438 7.75562 15.3438C7.5828 15.3438 7.44312 15.2037 7.44312 15.0312C7.44312 14.8588 7.5828 14.7188 7.75562 14.7188C8.25437 14.7188 9.25968 14.7278 10.2125 14.7362C11.0681 14.7441 11.8812 14.7513 12.2441 14.7513C12.4169 14.7513 12.5566 14.8913 12.5566 15.0638C12.5566 15.2363 12.4169 15.3763 12.2444 15.3763Z" fill="white"/>
</svg>
