<svg width="30" height="30" viewBox="0 0 30 30" fill="none" xmlns="http://www.w3.org/2000/svg">
<g clip-path="url(#clip0_94_277)">
<path d="M27.4492 18.7837L22.5891 16.2872C21.3994 15.674 19.861 15.8831 18.8748 16.7897L18.3076 17.309C17.7573 17.8153 16.8994 17.9325 16.2329 17.5875C14.5754 16.7344 13.2498 15.4088 12.3957 13.755C12.0461 13.0762 12.1576 12.2437 12.676 11.6812L13.1964 11.115C13.7541 10.5084 14.0607 9.72093 14.0607 8.89877C14.0607 8.38127 13.9351 7.86377 13.6979 7.4025L11.1986 2.54627C10.3895 0.976863 8.79101 0 7.02758 0C5.99072 0 5.00822 0.331912 4.18694 0.959069L2.70949 2.08593C0.389198 3.85407 -0.564282 6.9075 0.334787 9.68343C3.32915 18.9178 10.5864 26.3653 19.7476 29.6063C20.4873 29.8678 21.2607 30 22.0454 30C23.8801 30 25.6689 29.2547 26.9542 27.9525L28.6464 26.2416C29.5201 25.3584 30.0001 24.1903 30.0001 22.9519C30.0001 21.1884 29.0223 19.5919 27.4492 18.7837ZM26.6439 24.2672L24.9526 25.9781C23.867 27.0769 22.1476 27.4734 20.6851 26.9559C12.3441 24.0066 5.73665 17.2247 3.01042 8.81721C2.47886 7.17377 3.04229 5.36721 4.41572 4.32L5.89415 3.19221C6.22136 2.94284 6.61322 2.81064 7.02758 2.81064C7.73258 2.81064 8.37288 3.20157 8.69631 3.8325L11.1947 8.68873C11.2285 8.75436 11.2463 8.82559 11.2463 8.89966C11.2463 9.04966 11.1788 9.15373 11.1217 9.21559L10.6023 9.78088C9.29165 11.2059 9.00758 13.32 9.89543 15.0422C11.0167 17.219 12.7642 18.9627 14.9439 20.0859C16.6361 20.9577 18.8092 20.6644 20.2089 19.38L20.777 18.8587C20.8689 18.7743 21.1069 18.6862 21.3039 18.7865L26.1639 21.2831C26.7958 21.6075 27.1876 22.2468 27.1876 22.9519C27.1867 23.4459 26.9936 23.9128 26.6439 24.2672Z" fill="#2B3C58"/>
</g>
<defs>
<clipPath id="clip0_94_277">
<rect width="30" height="30" fill="white"/>
</clipPath>
</defs>
</svg>
